<svg xmlns="http://www.w3.org/2000/svg" xmlns:xlink="http://www.w3.org/1999/xlink" width="220" height="60" viewBox="0 0 2200 600">
  <defs>
    <style>
      .cls-1 {
        stroke: #fefefe;
        stroke-width: 45.62px;
        fill: url(#linear-gradient);
        filter: url(#filter);
      }
      .cls-2 {
        font-size: 416.667px;
        fill: #fefefe;
        font-family: Impact;
      }
    </style>
    <linearGradient id="linear-gradient" x1="372" y1="500" x2="372" y2="100" gradientUnits="userSpaceOnUse">
      <stop offset="0" stop-color="#497ddb"/>
      <stop offset="1" stop-color="#497ddb"/>
    </linearGradient>
    <filter id="filter" x="33" y="-39" width="679" height="679" filterUnits="userSpaceOnUse">
      <feGaussianBlur result="blur" stdDeviation="46.667" in="SourceAlpha"/>
      <feComposite result="composite"/>
      <feComposite result="composite-2"/>
      <feComposite result="composite-3"/>
      <feFlood result="flood" flood-color="#86a9e7" flood-opacity="0.4"/>
      <feComposite result="composite-4" operator="in" in2="composite-3"/>
      <feBlend result="blend" in2="SourceGraphic"/>
      <feBlend result="blend-2" in="SourceGraphic"/>
    </filter>
    <linearGradient id="linear-gradient-2" x1="379.89" y1="359.375" x2="379.89" y2="244.438" gradientUnits="userSpaceOnUse">
      <stop offset="0" stop-color="#fefefe"/>
      <stop offset="1" stop-color="#fefefe"/>
    </linearGradient>
  </defs>
  <g style="fill: url(#linear-gradient); filter: url(#filter)">
    <circle id="e" class="cls-1" cx="372" cy="300" r="200" style="stroke: inherit; filter: none; fill: inherit"/>
  </g>
  <use xlink:href="#e" style="stroke: #a2bbec; filter: none; fill: none"/>
  <path d="M 461.117 294.978 C 465.526 298.326 465.526 301.675 461.117 305.022 L 342.062 395.415 C 337.653 398.763 335.447 397.09 335.447 390.394 L 335.447 209.605 C 335.447 202.91 337.653 201.237 342.062 204.584 L 461.117 294.978 Z" style="fill: #fefefe; transform-origin: 399.935px 300px;"/>
  <path d="M 778.8 435.078 C 768.41 435.078 761.823 434.459 759.04 433.222 C 756.257 431.985 754.803 429.079 754.679 424.502 L 750.783 263.262 L 740.392 263.262 C 733.96 263.262 730.125 262.056 728.888 259.643 C 727.651 257.231 727.033 252.252 727.033 244.707 C 727.033 237.78 727.651 233.265 728.888 231.162 C 730.125 229.059 733.96 228.008 740.392 228.008 L 750.041 228.008 L 748.742 176.24 C 748.742 172.653 749.36 169.9 750.597 167.983 C 751.834 166.066 754.618 164.705 758.947 163.901 C 763.276 163.097 769.894 162.695 778.8 162.695 C 787.83 162.695 794.479 163.097 798.747 163.901 C 803.014 164.705 805.797 166.066 807.096 167.983 C 808.395 169.9 808.983 172.653 808.859 176.24 L 807.746 228.008 L 817.209 228.008 C 823.765 228.008 827.63 229.059 828.805 231.162 C 829.98 233.265 830.568 237.78 830.568 244.707 C 830.568 252.252 829.98 257.231 828.805 259.643 C 827.63 262.056 823.765 263.262 817.209 263.262 L 806.818 263.262 L 803.107 424.502 C 802.984 429.079 801.499 431.985 798.654 433.222 C 795.809 434.459 789.191 435.078 778.8 435.078 Z M 936.13 437.305 C 923.637 437.305 911.731 435.666 900.412 432.388 C 889.094 429.11 879.755 423.574 872.395 415.781 C 865.035 407.988 861.107 397.35 860.612 383.867 L 856.345 266.23 C 855.85 252.995 859.499 242.233 867.292 233.945 C 875.085 225.658 885.229 219.566 897.722 215.669 C 910.215 211.772 923.327 209.824 937.058 209.824 C 950.17 209.824 962.725 211.772 974.724 215.669 C 986.723 219.566 996.433 225.658 1003.855 233.945 C 1011.276 242.233 1014.678 252.995 1014.06 266.23 L 1011.276 334.697 C 1011.153 339.274 1009.514 342.181 1006.359 343.418 C 1003.205 344.655 996.062 345.273 984.929 345.273 L 912.751 345.273 L 911.452 385.351 C 911.205 394.752 913.246 401.308 917.575 405.019 C 921.904 408.73 928.027 410.586 935.944 410.586 C 943.985 410.586 949.83 408.854 953.479 405.39 C 957.128 401.927 958.952 395.804 958.952 387.021 L 958.952 381.269 C 958.952 376.569 960.467 373.384 963.498 371.714 C 966.529 370.044 973.549 369.209 984.558 369.209 C 995.567 369.209 1002.525 370.013 1005.432 371.621 C 1008.339 373.229 1009.792 376.383 1009.792 381.084 L 1009.792 389.248 C 1009.792 402.236 1006.236 412.194 999.123 419.121 C 992.01 426.048 982.826 430.811 971.569 433.408 C 960.313 436.006 948.5 437.305 936.13 437.305 Z M 915.163 263.076 L 913.493 317.441 L 958.952 317.441 L 957.097 263.076 C 956.726 252.562 954.685 245.882 950.974 243.037 C 947.263 240.192 942.624 238.769 937.058 238.769 C 930.997 238.769 925.894 240.192 921.75 243.037 C 917.606 245.882 915.41 252.562 915.163 263.076 Z M 1090.873 435.078 C 1080.482 435.078 1073.895 434.459 1071.112 433.222 C 1068.329 431.985 1066.876 429.079 1066.752 424.502 L 1062.856 263.262 L 1052.465 263.262 C 1046.033 263.262 1042.198 262.056 1040.961 259.643 C 1039.724 257.231 1039.106 252.252 1039.106 244.707 C 1039.106 237.78 1039.724 233.265 1040.961 231.162 C 1042.198 229.059 1046.033 228.008 1052.465 228.008 L 1062.113 228.008 L 1060.815 176.24 C 1060.815 172.653 1061.433 169.9 1062.67 167.983 C 1063.907 166.066 1066.691 164.705 1071.02 163.901 C 1075.349 163.097 1081.967 162.695 1090.873 162.695 C 1099.903 162.695 1106.552 163.097 1110.819 163.901 C 1115.087 164.705 1117.87 166.066 1119.169 167.983 C 1120.468 169.9 1121.055 172.653 1120.932 176.24 L 1119.818 228.008 L 1129.281 228.008 C 1135.837 228.008 1139.703 229.059 1140.878 231.162 C 1142.053 233.265 1142.641 237.78 1142.641 244.707 C 1142.641 252.252 1142.053 257.231 1140.878 259.643 C 1139.703 262.056 1135.837 263.262 1129.281 263.262 L 1118.891 263.262 L 1115.18 424.502 C 1115.056 429.079 1113.572 431.985 1110.727 433.222 C 1107.882 434.459 1101.264 435.078 1090.873 435.078 Z M 1222.044 437.305 C 1204.726 437.305 1191.676 432.821 1182.894 423.852 C 1174.111 414.884 1169.596 403.968 1169.349 391.103 L 1169.163 381.084 C 1169.04 371.807 1171.576 364.014 1176.771 357.705 C 1181.966 351.396 1188.552 346.139 1196.531 341.933 C 1204.51 337.728 1212.519 334.326 1220.56 331.728 C 1228.477 329.131 1236.795 326.904 1245.516 325.049 C 1254.237 323.193 1262.679 321.585 1270.843 320.224 L 1269.173 258.808 C 1268.802 245.449 1262.122 238.769 1249.134 238.769 C 1242.825 238.769 1237.661 240.006 1233.641 242.48 C 1229.62 244.954 1227.486 250.335 1227.239 258.623 L 1225.94 300.742 C 1225.817 305.319 1224.147 308.226 1220.931 309.463 C 1217.714 310.7 1210.045 311.318 1197.923 311.318 C 1186.666 311.318 1179.523 310.7 1176.492 309.463 C 1173.461 308.226 1171.822 305.319 1171.575 300.742 L 1170.091 261.221 C 1169.72 251.325 1172.194 243.068 1177.513 236.45 C 1182.832 229.832 1189.697 224.575 1198.108 220.679 C 1206.52 216.782 1215.365 213.999 1224.642 212.329 C 1233.919 210.659 1242.269 209.824 1249.69 209.824 C 1263.915 209.824 1277.027 211.927 1289.026 216.133 C 1301.025 220.338 1310.611 226.43 1317.786 234.409 C 1324.961 242.388 1328.362 252.067 1327.991 263.447 L 1322.239 424.502 C 1322.116 429.079 1320.631 431.985 1317.786 433.222 C 1314.941 434.459 1308.324 435.078 1297.933 435.078 C 1288.408 435.078 1282.378 434.459 1279.842 433.222 C 1277.306 431.985 1275.914 429.079 1275.667 424.502 L 1275.481 418.008 C 1268.802 422.956 1260.947 427.409 1251.917 431.367 C 1242.887 435.326 1232.929 437.305 1222.044 437.305 Z M 1220.003 385.537 C 1220.003 393.082 1222.044 398.463 1226.126 401.68 C 1230.208 404.896 1235.156 406.504 1240.97 406.504 C 1248.144 406.504 1254.329 405.298 1259.524 402.886 C 1264.719 400.473 1269.173 397.721 1272.884 394.629 L 1271.585 346.943 C 1258.72 349.294 1248.33 352.201 1240.413 355.664 C 1234.352 358.385 1229.435 361.478 1225.662 364.941 C 1221.889 368.405 1220.003 372.858 1220.003 378.301 L 1220.003 385.537 Z M 1400.91 435.078 C 1390.519 435.078 1383.932 434.459 1381.149 433.222 C 1378.366 431.985 1376.912 429.079 1376.789 424.502 L 1370.851 225.596 C 1370.728 220.277 1372.243 216.689 1375.397 214.834 C 1378.551 212.979 1386.437 212.051 1399.054 212.051 C 1411.671 212.051 1419.557 212.979 1422.711 214.834 C 1425.866 216.689 1427.381 220.277 1427.257 225.596 L 1427.072 236.914 C 1433.999 228.997 1441.42 222.503 1449.337 217.431 C 1457.254 212.36 1466.779 209.824 1477.912 209.824 C 1488.426 209.824 1497.796 212.422 1506.022 217.617 C 1514.248 222.812 1520.464 230.234 1524.669 239.883 C 1531.968 231.224 1539.73 224.049 1547.956 218.359 C 1556.181 212.669 1566.232 209.824 1578.107 209.824 C 1593.198 209.824 1605.785 215.143 1615.866 225.781 C 1625.947 236.419 1630.679 251.139 1630.06 269.941 L 1625.607 424.502 C 1625.483 429.079 1623.999 431.985 1621.154 433.222 C 1618.309 434.459 1611.691 435.078 1601.3 435.078 C 1590.909 435.078 1584.323 434.459 1581.54 433.222 C 1578.757 431.985 1577.303 429.079 1577.179 424.502 L 1572.912 275.322 C 1572.665 265.55 1570.593 258.994 1566.696 255.654 C 1562.799 252.314 1557.82 250.644 1551.759 250.644 C 1547.058 250.644 1542.884 251.974 1539.235 254.634 C 1535.586 257.293 1532.462 260.478 1529.865 264.189 C 1529.865 266.044 1529.865 267.962 1529.865 269.941 L 1525.412 424.502 C 1525.288 429.079 1523.803 431.985 1520.958 433.222 C 1518.113 434.459 1511.496 435.078 1501.105 435.078 C 1490.714 435.078 1484.127 434.459 1481.344 433.222 C 1478.561 431.985 1477.107 429.079 1476.984 424.502 L 1472.716 275.322 C 1472.469 265.55 1470.397 258.994 1466.5 255.654 C 1462.604 252.314 1457.625 250.644 1451.564 250.644 C 1446.987 250.644 1442.874 251.943 1439.225 254.541 C 1435.576 257.138 1432.452 260.231 1429.855 263.818 L 1425.216 424.502 C 1425.093 429.079 1423.608 431.985 1420.763 433.222 C 1417.918 434.459 1411.301 435.078 1400.91 435.078 Z M 1726.739 437.305 C 1711.524 437.305 1699.495 432.883 1690.65 424.038 C 1681.805 415.193 1677.136 402.298 1676.641 385.351 L 1672.003 225.596 C 1672.003 222.009 1672.621 219.256 1673.858 217.339 C 1675.095 215.422 1677.879 214.061 1682.208 213.257 C 1686.537 212.453 1693.155 212.051 1702.061 212.051 C 1711.091 212.051 1717.74 212.453 1722.007 213.257 C 1726.275 214.061 1729.058 215.422 1730.357 217.339 C 1731.656 219.256 1732.243 222.009 1732.12 225.596 L 1727.852 377.002 C 1727.605 387.763 1730.048 394.969 1735.181 398.618 C 1740.314 402.267 1745.788 404.092 1751.602 404.092 C 1756.921 404.092 1761.715 402.948 1765.982 400.659 C 1770.249 398.37 1773.991 395.804 1777.208 392.959 L 1772.198 225.596 C 1772.198 222.009 1772.816 219.256 1774.053 217.339 C 1775.29 215.422 1778.074 214.061 1782.403 213.257 C 1786.732 212.453 1793.35 212.051 1802.256 212.051 C 1811.286 212.051 1817.935 212.453 1822.203 213.257 C 1826.47 214.061 1829.253 215.422 1830.552 217.339 C 1831.851 219.256 1832.439 222.009 1832.315 225.596 L 1826.563 424.502 C 1826.44 429.079 1824.955 431.985 1822.11 433.222 C 1819.265 434.459 1812.647 435.078 1802.256 435.078 C 1792.731 435.078 1786.701 434.459 1784.166 433.222 C 1781.63 431.985 1780.238 429.079 1779.991 424.502 L 1779.62 415.781 C 1774.301 420.729 1767.312 425.553 1758.653 430.254 C 1749.994 434.955 1739.356 437.305 1726.739 437.305 Z M 1887.419 435.078 C 1877.028 435.078 1870.874 432.944 1868.957 428.677 C 1867.04 424.409 1867.256 419.368 1869.607 413.555 L 1933.991 251.015 L 1875.173 251.015 C 1868.741 251.015 1864.906 249.809 1863.669 247.397 C 1862.432 244.985 1861.814 240.006 1861.814 232.461 C 1861.814 224.05 1862.432 218.545 1863.669 215.947 C 1864.906 213.35 1868.741 212.051 1875.173 212.051 L 1989.099 212.051 C 1996.397 212.051 2000.757 214.339 2002.18 218.916 C 2003.603 223.493 2003.262 228.688 2001.159 234.502 L 1925.456 401.68 L 1984.275 401.68 C 1990.831 401.68 1994.696 402.731 1995.871 404.834 C 1997.046 406.937 1997.634 411.452 1997.634 418.379 C 1997.634 425.182 1997.046 429.666 1995.871 431.831 C 1994.696 433.996 1990.831 435.078 1984.275 435.078 L 1887.419 435.078 Z" style="fill: rgb(254, 254, 254);"/>
</svg>