<?xml version="1.0" encoding="utf-8"?>
<svg width="36" height="36" viewBox="0 0 300 300" xmlns="http://www.w3.org/2000/svg">
  <path d="M 150 150 m -136.737 0 a 136.737 136.737 0 1 0 273.474 0 a 136.737 136.737 0 1 0 -273.474 0 Z M 150 150 m -112.673 0 a 112.673 112.673 0 0 1 225.346 0 a 112.673 112.673 0 0 1 -225.346 0 Z" style="fill: #ec803c;"/>
  <path d="M 221.783 85.082 Q 224.972 80.882 228.16 85.082 L 285.555 160.675 Q 288.744 164.875 282.367 164.875 L 167.576 164.875 Q 161.199 164.875 164.388 160.675 Z" style="fill: #ec803c;" transform="matrix(0, 1, -1, 0, 286.928497, -74.971497)"/>
</svg>