<?xml version="1.0" standalone="no"?>
<!DOCTYPE svg PUBLIC "-//W3C//DTD SVG 20010904//EN"
 "http://www.w3.org/TR/2001/REC-SVG-20010904/DTD/svg10.dtd">
<svg version="1.0" xmlns="http://www.w3.org/2000/svg"
 width="717.000000pt" height="717.000000pt" viewBox="0 0 717.000000 717.000000"
 preserveAspectRatio="xMidYMid meet">

<g transform="translate(0.000000,717.000000) scale(0.100000,-0.100000)"
fill="#000000" stroke="none">
<path d="M2666 6139 c-291 -31 -587 -139 -837 -308 -560 -377 -872 -1048 -798
-1719 69 -630 459 -1185 1024 -1457 264 -127 514 -185 805 -185 378 0 732 110
1042 322 l90 61 197 -197 198 -198 -45 -87 c-30 -59 -45 -102 -46 -130 l-1
-41 585 -585 c652 -652 595 -606 702 -564 234 92 558 456 558 626 0 36 -24 61
-572 610 -407 407 -582 576 -603 582 -42 11 -99 -4 -181 -48 l-71 -39 -198
198 -198 198 60 89 c201 294 307 616 320 973 9 242 -21 442 -99 669 -277 806
-1083 1319 -1932 1230z m474 -418 c578 -115 1023 -566 1136 -1151 24 -128 25
-387 0 -520 -49 -272 -182 -531 -379 -737 -205 -214 -459 -353 -767 -420 -120
-25 -420 -26 -540 0 -119 26 -273 78 -371 127 -404 204 -695 590 -775 1030
-25 133 -24 392 0 520 57 295 188 543 401 755 243 244 522 376 885 419 74 9
319 -5 410 -23z"/>
</g>
</svg>
